<?xml version="1.0" encoding="utf-8"?>
<!-- Generator: Adobe Illustrator 24.1.1, SVG Export Plug-In . SVG Version: 6.00 Build 0)  -->
<svg version="1.1" id="Layer_1" xmlns="http://www.w3.org/2000/svg" xmlns:xlink="http://www.w3.org/1999/xlink" x="0px" y="0px"
	 viewBox="0 0 500 500" style="enable-background:new 0 0 500 500;" xml:space="preserve">
<style type="text/css">
	.st0{fill:#FFFFFF;}
</style>
<g>
	<g id="XMLID_1_">
		<g>
			<path class="st0" d="M318,252c0,38.6-31.5,69.1-70.1,69.1s-69.1-31.5-69.1-69.1c0-38.6,31.5-69.1,69.1-69.1S318,213.4,318,252z
				 M292.6,252c0-24.7-20-44.7-44.7-44.7s-44.7,20-44.7,44.7s20,44.7,44.7,44.7S292.6,276.7,292.6,252z"/>
			<path class="st0" d="M320.1,163.5c9.1,0,16.3,7.1,16.3,16.3c-0.1,9.2-7.2,16.3-16.3,16.3s-16.3-7.1-16.3-16.3
				C303.8,170.7,310.9,163.5,320.1,163.5z"/>
			<path class="st0" d="M383,197.2c0.1,0,0.1,111.7,0.1,111.7c0,23.4-8.1,43.7-22.4,57.9c-14.3,14.2-34.6,21.3-56.9,21.3H193
				c-22.4,0-42.7-7.1-56.9-21.3c-15.2-14.2-22.4-34.6-22.4-57.9V197.2c0-46.7,31.5-79.3,79.3-79.3h111.8c23.4,0,42.7,8.1,56.9,22.4
				C375.9,154.5,383,173.8,383,197.2z M358.6,309V197.2c0-16.3-5.1-29.5-14.2-39.6c-10.1-10.2-23.3-15.3-40.6-15.3H192
				c-16.3,0-30.5,5.1-39.6,14.2c-9.1,9.1-14.2,23.4-14.2,39.6v111.8c0,16.3,5.1,30.5,15.2,40.7c10.2,9.1,23.4,14.2,39.6,14.2h110.8
				c16.3,0,30.5-5.1,39.6-14.2C353.6,339.5,358.6,325.2,358.6,309z"/>
			<path d="M249.9,0c138.3,0,251.1,111.8,250,250c0,138.2-111.8,250-250,250s-250-111.8-250-250S111.7,0,249.9,0z M383.1,308.9
				c0,0,0-111.7-0.1-111.7c0-23.4-7.1-42.7-21.3-56.9c-14.2-14.3-33.5-22.4-56.9-22.4H193c-47.8,0-79.3,32.6-79.3,79.3v111.7
				c0,23.3,7.2,43.7,22.4,57.9c14.2,14.2,34.5,21.3,56.9,21.3h110.8c22.3,0,42.6-7.1,56.9-21.3C375,352.6,383.1,332.3,383.1,308.9z"
				/>
			<path d="M358.6,197.2V309c0,16.2-5,30.5-15.2,39.6c-9.1,9.1-23.3,14.2-39.6,14.2H193c-16.2,0-29.4-5.1-39.6-14.2
				c-10.1-10.2-15.2-24.4-15.2-40.7V196.1c0-16.2,5.1-30.5,14.2-39.6c9.1-9.1,23.3-14.2,39.6-14.2h111.8c17.3,0,30.5,5.1,40.6,15.3
				C353.5,167.7,358.6,180.9,358.6,197.2z M336.4,179.8c0-9.2-7.2-16.3-16.3-16.3c-9.2,0-16.3,7.2-16.3,16.3
				c0,9.2,7.2,16.3,16.3,16.3S336.3,189,336.4,179.8z M247.9,321.1c38.6,0,70.1-30.5,70.1-69.1s-32.5-69.1-70.1-69.1
				s-69.1,30.5-69.1,69.1C178.8,289.6,209.3,321.1,247.9,321.1z"/>
			<circle cx="247.9" cy="252" r="44.7"/>
		</g>
		<g>
		</g>
	</g>
</g>
</svg>
