<?xml version="1.0" encoding="utf-8"?>
<!-- Generator: Adobe Illustrator 24.1.1, SVG Export Plug-In . SVG Version: 6.00 Build 0)  -->
<svg version="1.1"
	 id="svg2" xmlns:cc="http://creativecommons.org/ns#" xmlns:dc="http://purl.org/dc/elements/1.1/" xmlns:inkscape="http://www.inkscape.org/namespaces/inkscape" xmlns:rdf="http://www.w3.org/1999/02/22-rdf-syntax-ns#" xmlns:sodipodi="http://sodipodi.sourceforge.net/DTD/sodipodi-0.dtd" xmlns:svg="http://www.w3.org/2000/svg"
	 xmlns="http://www.w3.org/2000/svg" xmlns:xlink="http://www.w3.org/1999/xlink" x="0px" y="0px" viewBox="0 0 500 500"
	 style="enable-background:new 0 0 500 500;" xml:space="preserve">
<style type="text/css">
	.st0{fill:#FFFFFF;}
</style>
<g id="layer1" transform="translate(0,-552.36218)">
	<g id="layer1-9" transform="translate(-549.00515,80.294372)">
	</g>
	<g id="layer1-6" transform="translate(-575.71429,39.999999)">
	</g>
	<g id="layer1-92" transform="matrix(0.99533037,0,0,0.99716768,619.96997,-73.128637)">
		<g id="layer1-9-7" transform="translate(-1068,-236)">
		</g>
	</g>
	<g id="XMLID_1_">
		<g>
			<path d="M250,552.4c138.1,0,250,111.9,250,250c0,69-28,131.5-73.2,176.8c-45.2,45.2-107.7,73.2-176.8,73.2s-131.5-28-176.8-73.2
				C28,933.9,0,871.4,0,802.4s28-131.5,73.2-176.8C118.5,580.3,181,552.4,250,552.4z M410,962.4c0-25.8,0.2-95.8-0.5-140
				c-1-53.6-33.5-76.5-62.8-78.3c-6-0.4-10.5-0.6-14.9-0.6v0c-4.4,0-8.6,0.2-14.2,0.5c-12.2,0.6-40.7,13.8-51.1,34.9
				c0-9.2,0.1-17.6,0.1-30.1c-12.5,0-28.8,0.1-63,0.1c0,38.3-0.4,174-0.4,213.5h66.1c0-23.5,0.3-82.3,0.3-119.3
				c0-12.4,7.5-41.1,38.3-41.1c28,0,35.8,23.6,35.8,41.1c0,38.5-0.3,93-0.3,119.3H410z M161.8,962.3V749.7H95.6v212.5H161.8z
				 M167.5,681.2c0-21.5-17.4-38.8-38.8-38.8c-21.4,0-38.8,17.4-38.8,38.8c0,21.5,17.3,38.8,38.8,38.8
				C150.2,720,167.5,702.7,167.5,681.2z"/>
			<path class="st0" d="M409.4,822.4c0.8,44.2,0.5,114.2,0.5,140h-66.5c0-26.4,0.3-80.8,0.3-119.3c0-17.5-7.8-41.1-35.8-41.1
				c-30.8,0-38.3,28.7-38.3,41.1c0,37-0.3,95.9-0.3,119.3h-66.1c0-39.5,0.4-175.2,0.4-213.5c34.1,0,50.5-0.1,63-0.1
				c0,12.5-0.1,21-0.1,30.1c10.4-21.1,38.9-34.3,51.1-34.9c5.6-0.3,9.8-0.5,14.2-0.5v0c4.4,0,8.9,0.2,14.9,0.6
				C375.9,745.9,408.5,768.8,409.4,822.4z"/>
			<rect x="95.6" y="749.7" class="st0" width="66.3" height="212.6"/>
			<path class="st0" d="M128.8,642.4c21.4,0,38.8,17.4,38.8,38.8c0,21.5-17.4,38.8-38.8,38.8c-21.4,0-38.8-17.4-38.8-38.8
				C90,659.8,107.3,642.4,128.8,642.4z"/>
		</g>
		<g>
		</g>
	</g>
</g>
</svg>
