<?xml version="1.0" encoding="utf-8"?>
<!-- Generator: Adobe Illustrator 24.1.1, SVG Export Plug-In . SVG Version: 6.00 Build 0)  -->
<svg version="1.1"
	 id="svg2" xmlns:cc="http://creativecommons.org/ns#" xmlns:dc="http://purl.org/dc/elements/1.1/" xmlns:inkscape="http://www.inkscape.org/namespaces/inkscape" xmlns:rdf="http://www.w3.org/1999/02/22-rdf-syntax-ns#" xmlns:sodipodi="http://sodipodi.sourceforge.net/DTD/sodipodi-0.dtd" xmlns:svg="http://www.w3.org/2000/svg"
	 xmlns="http://www.w3.org/2000/svg" xmlns:xlink="http://www.w3.org/1999/xlink" x="0px" y="0px" viewBox="0 0 500 500"
	 style="enable-background:new 0 0 500 500;" xml:space="preserve">
<style type="text/css">
	.st0{fill:#FFFFFF;}
</style>
<g id="layer1" transform="translate(0,-552.36218)">
	<g id="XMLID_1_">
		<g>
			<path d="M250,552.4c138.1,0,250,111.9,250,250c0,69-28,131.5-73.2,176.8c-45.2,45.2-107.7,73.2-176.8,73.2s-131.5-28-176.8-73.2
				C28,933.9,0,871.4,0,802.4s28-131.5,73.2-176.8C118.5,580.3,181,552.4,250,552.4z M377.3,737c12.8-9.2,24-20.8,32.8-34
				c-11.8,5.2-24.4,8.8-37.7,10.3c13.6-8.1,24-21,28.9-36.3c-12.7,7.5-26.7,13-41.7,16c-12-12.8-29-20.7-47.9-20.7
				c-0.6,0-1.1,0-1.7,0c-35.5,0.9-63.9,29.9-63.9,65.6c0,5.1,0.6,10.2,1.7,15c-54.6-2.7-102.9-28.9-135.3-68.6
				c-5.7,9.7-8.9,21-8.9,33c0,22.8,11.6,42.9,29.2,54.6c-10.8-0.3-20.9-3.3-29.8-8.2c0,0.3,0,0.6,0,0.8c0,31.8,22.6,58.3,52.7,64.4
				c-5.5,1.5-11.3,2.3-17.3,2.3c-4.2,0-8.3-0.4-12.3-1.2c8.4,26.1,32.6,45.1,61.3,45.6c-22.5,17.6-50.7,28.1-81.5,28.1
				c-5.3,0-10.5-0.3-15.7-0.9c29.1,18.6,63.6,29.5,100.6,29.5c120.8,0,186.8-100,186.8-186.8C377.4,742.7,377.4,739.9,377.3,737z"/>
			<path class="st0" d="M410,703.1c-8.8,13.2-19.9,24.7-32.8,34c0.1,2.8,0.2,5.7,0.2,8.5c0,86.8-66,186.8-186.8,186.8
				c-37.1,0-71.6-10.9-100.6-29.5c5.1,0.6,10.4,0.9,15.7,0.9c30.8,0,59-10.5,81.5-28.1c-28.7-0.5-52.9-19.5-61.3-45.6
				c4,0.8,8.1,1.2,12.3,1.2c6,0,11.8-0.8,17.3-2.3c-30-6-52.7-32.5-52.7-64.4c0-0.3,0-0.6,0-0.8c8.8,4.9,19,7.9,29.8,8.2
				c-17.6-11.8-29.2-31.8-29.2-54.6c0-12,3.2-23.3,8.9-33c32.4,39.7,80.8,65.9,135.3,68.6c-1.1-4.8-1.7-9.8-1.7-15
				c0-35.7,28.5-64.7,63.9-65.6c0.6,0,1.1,0,1.7,0c18.9,0,36,8,47.9,20.7c15-2.9,29-8.4,41.7-16c-4.9,15.4-15.3,28.2-28.9,36.3
				C385.6,711.8,398.2,708.3,410,703.1z"/>
		</g>
		<g>
		</g>
	</g>
</g>
</svg>
