<?xml version="1.0" encoding="utf-8"?>
<!-- Generator: Adobe Illustrator 24.1.1, SVG Export Plug-In . SVG Version: 6.00 Build 0)  -->
<svg version="1.1" id="Layer_1" xmlns="http://www.w3.org/2000/svg" xmlns:xlink="http://www.w3.org/1999/xlink" x="0px" y="0px"
	 viewBox="0 0 500 500" style="enable-background:new 0 0 500 500;" xml:space="preserve">
<style type="text/css">
	.st0{fill:#FFFFFF;}
</style>
<g id="XMLID_1_">
	<g>
		<path d="M500,250c0.1,122.9-89.3,227.6-210.8,246.9v-174h58.1l11.1-72h-69.1V204c-0.3-2.7-0.3-5.5,0.1-8.2
			c2.6-19.7,20.8-33.5,40.4-31h31.6v-62.4c-18.5-3.1-37.2-4.7-55.8-5c-57.1,0-94.6,34.9-94.6,97.3V250h-62.4v72H211v174.9
			C89.7,477.7,0.4,373.1,0.3,250.3C0.2,112.3,111.9,0.3,249.9,0.2C388,0.1,499.9,112,500,250z"/>
		<path class="st0" d="M289.4,195.8c-0.4,2.7-0.4,5.5-0.1,8.2v46.8h69.1l-11.1,72h-58.1v174c-41.2,5.4-78.2,0-78.2,0V322h-62.4v-72
			H211v-55.2c0-62.4,37.5-97.3,94.6-97.3c18.7,0.3,37.3,1.9,55.8,5v62.4h-31.6C310.2,162.3,292,176.2,289.4,195.8z"/>
	</g>
</g>
</svg>
