<?xml version="1.0" encoding="utf-8"?>
<!-- Generator: Adobe Illustrator 23.1.0, SVG Export Plug-In . SVG Version: 6.00 Build 0)  -->
<svg version="1.1" id="_x31_200" xmlns="http://www.w3.org/2000/svg" xmlns:xlink="http://www.w3.org/1999/xlink" x="0px" y="0px"
	 viewBox="0 0 683.2 75.2" style="enable-background:new 0 0 683.2 75.2;" xml:space="preserve">
<style type="text/css">
	.st0{opacity:0.35;clip-path:url(#SVGID_2_);fill:#A05149;}
	.st1{opacity:0.75;}
	.st2{fill:#FEDC4E;}
	.st3{fill:#FFFFFF;}
	.st4{fill:#CD2A2A;}
	.st5{fill:#5B5B5B;}
	.st6{fill:#A05149;}
	.st7{fill:#349946;}
</style>
<g>
	<defs>
		<rect id="SVGID_1_" x="-1890" y="-153.1" width="1239.2" height="306.9"/>
	</defs>
	<clipPath id="SVGID_2_">
		<use xlink:href="#SVGID_1_"  style="overflow:visible;"/>
	</clipPath>
	<rect x="-1902.9" y="-491.1" class="st0" width="1252" height="1289.9"/>
</g>
<g>
	<defs>
		<rect id="SVGID_3_" x="1281.8" y="-2004.7" width="1219" height="1010.2"/>
	</defs>
	<clipPath id="SVGID_4_">
		<use xlink:href="#SVGID_3_"  style="overflow:visible;"/>
	</clipPath>
	<g style="opacity:0.65;clip-path:url(#SVGID_4_);">
		
			<image style="overflow:visible;" width="2560" height="1263" xlink:href="595576FF.jpg"  transform="matrix(0.7998 0 0 0.7998 1281.7672 -2004.6715)">
		</image>
	</g>
</g>
<g class="st1">
	<defs>
		<rect id="SVGID_5_" x="-1478.1" y="-1415.5" class="st1" width="1219" height="1010.2"/>
	</defs>
	<clipPath id="SVGID_6_">
		<use xlink:href="#SVGID_5_"  style="overflow:visible;"/>
	</clipPath>
	<g style="opacity:0.65;clip-path:url(#SVGID_6_);">
		
			<image style="overflow:visible;" width="2560" height="1263" xlink:href="595576FA.jpg"  transform="matrix(0.7998 0 0 0.7998 -1478.0542 -1415.4542)">
		</image>
	</g>
</g>
<path class="st2" d="M-1531.2-1323h463.4c0,0-4.4,13.8,12.4,14.6v24.3c0,0-13.3,0.1-12.2,14h-463.5V-1323z"/>
<path class="st2" d="M-185.6-1323h-496.6c0,0,4.7,13.8-13.3,14.6v24.3c0,0,14.3,0.1,13.1,14h496.7V-1323z"/>
<g>
	
		<image style="overflow:visible;" width="1439" height="1345" xlink:href="595576FB.png"  transform="matrix(0.24 0 0 0.24 -1858.5848 529.4764)">
	</image>
	<g>
		<rect x="-1850.5" y="537.6" class="st3" width="321.1" height="298.6"/>
	</g>
</g>
<rect x="2264.8" y="334.3" class="st3" width="321.1" height="298.6"/>
<g>
	
		<image style="overflow:visible;opacity:0.65;" width="1484" height="2176" xlink:href="59557706.png"  transform="matrix(0.24 0 0 0.24 -1049.3892 -1012.4227)">
	</image>
	<g>
		<g>
			<defs>
				<rect id="SVGID_7_" x="-1034.2" y="-994.5" width="321.1" height="467.2"/>
			</defs>
			<clipPath id="SVGID_8_">
				<use xlink:href="#SVGID_7_"  style="overflow:visible;"/>
			</clipPath>
		</g>
	</g>
</g>
<g>
	
		<image style="overflow:visible;opacity:0.5;" width="1500" height="1034" xlink:href="59557709.png"  transform="matrix(0.24 0 0 0.24 -1438.2688 -1197.4628)">
	</image>
	<g>
		<g>
			<defs>
				<rect id="SVGID_9_" x="-1425.7" y="-1178.7" width="325.5" height="138.8"/>
			</defs>
			<clipPath id="SVGID_10_">
				<use xlink:href="#SVGID_9_"  style="overflow:visible;"/>
			</clipPath>
		</g>
	</g>
</g>
<g>
	
		<image style="overflow:visible;opacity:0.5;" width="1834" height="2409" xlink:href="5955770A.png"  transform="matrix(0.24 0 0 0.24 -1087.7974 -1288.411)">
	</image>
	<g>
		<g>
			<defs>
				<rect id="SVGID_11_" x="-1073.2" y="-1201.3" width="397.1" height="169.3"/>
			</defs>
			<clipPath id="SVGID_12_">
				<use xlink:href="#SVGID_11_"  style="overflow:visible;"/>
			</clipPath>
		</g>
	</g>
</g>
<g>
	
		<image style="overflow:visible;opacity:0.5;" width="1496" height="1025" xlink:href="59557708.png"  transform="matrix(0.24 0 0 0.24 -662.7975 -1242.3427)">
	</image>
	<g>
		<g>
			<defs>
				<rect id="SVGID_13_" x="-647.9" y="-1178.7" width="325.5" height="138.8"/>
			</defs>
			<clipPath id="SVGID_14_">
				<use xlink:href="#SVGID_13_"  style="overflow:visible;"/>
			</clipPath>
		</g>
	</g>
</g>
<path class="st4" d="M2168.5,505.7h-154.9c-6.6,0-12-5.4-12-12V488c0-6.6,5.4-12,12-12h154.9c6.6,0,12,5.4,12,12v5.6
	C2180.5,500.3,2175.1,505.7,2168.5,505.7z"/>
<path class="st4" d="M2497.6,505.7h-154.9c-6.6,0-12-5.4-12-12V488c0-6.6,5.4-12,12-12h154.9c6.6,0,12,5.4,12,12v5.6
	C2509.6,500.3,2504.2,505.7,2497.6,505.7z"/>
<rect x="1897.6" y="12.1" style="fill:none;" width="391.6" height="121.7"/>
<text transform="matrix(1 0 0 1 1899.2362 25.8792)"><tspan x="0" y="0" style="fill:#231F20; font-family:'BerlinSansFB-Reg'; font-size:19.9014px;">Lorem ipsum dolor sit amet, consectetuer adip</tspan><tspan x="380.6" y="0" style="fill:#231F20; font-family:'BerlinSansFB-Reg'; font-size:19.9014px;">-</tspan><tspan x="13" y="25.4" style="fill:#231F20; font-family:'BerlinSansFB-Reg'; font-size:19.9014px;">iscing elit, sed diam nonummy nibh euismod </tspan><tspan x="16.5" y="50.8" style="fill:#231F20; font-family:'BerlinSansFB-Reg'; font-size:19.9014px;">tincidunt ut laoreet dolore magna aliquam </tspan><tspan x="136.8" y="76.2" style="fill:#231F20; font-family:'BerlinSansFB-Reg'; font-size:19.9014px;">erat volutpat.  </tspan><tspan x="3.2" y="101.6" style="fill:#231F20; font-family:'BerlinSansFB-Reg'; font-size:19.9014px;">veniam, quis nostrud exerci tation ullamcorper </tspan></text>
<g>
	<path class="st4" d="M1690.9,252L1690.9,252C1690.9,252,1690.9,252,1690.9,252C1690.9,252,1690.9,252,1690.9,252z"/>
</g>
<g>
	<path class="st4" d="M1685.6,181C1685.6,181,1685.6,181.1,1685.6,181C1685.6,181.1,1685.6,181.1,1685.6,181
		C1685.6,181,1685.6,181,1685.6,181z"/>
	<path class="st4" d="M1717.9,249.5c-0.1,0-0.3-0.1-0.4-0.1C1717.7,249.4,1717.8,249.4,1717.9,249.5z"/>
</g>
<g>
	
		<image style="overflow:visible;" width="2807" height="1080" xlink:href="5955770D.png"  transform="matrix(0.24 0 0 0.24 1091.4663 -789.3449)">
	</image>
	<g>
		<g>
			<path class="st4" d="M1492.8-710.7c-2,8-7.5,15.2-14.9,19c-7.4,3.8-16.5,4.1-24,0.5c-7.5-3.6-13-11-14.1-19.3
				c-1.3-10,4.2-20.4,12.8-25.8c8.6-5.4,19.7-5.9,29.2-2.4l-8.3,11.4c-4-1.5-8.2-0.6-9.9,0.4c-3.6,2.2-5.9,6.6-5.3,10.7
				c0.4,3.4,2.8,6.5,5.9,8c3.1,1.5,7.1,1.3,10-0.2c1.1-0.6,3.1-4,3.9-7.3L1492.8-710.7z"/>
			<path class="st4" d="M1308.3-746.8h-17.2c0,0-8.1,40.5,1.2,49.9c8.7,8.8,18.3,8.4,22.3,8.2c10.1-0.5,19.1-2,23.9-11.8
				s7.1-40.4,7.1-40.4l-16.5-1.9c0,0-0.9,38.8-14.6,38.7C1300.7-704.2,1306.2-737.5,1308.3-746.8z"/>
			<g>
				<path class="st4" d="M1665.5-559.2c6.5-3,13.1-6,19.6-8.9c1.2-16.6,2.6-33,3.8-49.6c5.1-0.8,10.2-1.6,15.3-2.4
					c0.4-9.7-0.5-18.9-2.6-28.4c-4.1,0.8-8.3,1.7-12.5,2.5c0.2-4.1,0.2-8.1,0.3-12.3c-11.8,0.4-23.6,0.8-35.4,1.2
					c0.7,6.2,0.8,11.8,1.5,17.9c-4,1-7.8,2.2-11.7,3.3c0.4,5.9-0.2,11.9,0.2,17.8c5.3,0,10.6-0.1,15.9-0.2
					C1661.1-599.1,1664.3-578.2,1665.5-559.2z"/>
			</g>
			<g>
				<path class="st4" d="M1435.2-628.9c8.9-0.6,17.8-1.2,26.8-1.7c0.2,2.3,0.4,4.6,0.6,6.9c9.7-11.7,27.1-16.1,41.5-11.4
					c-1.3,11.6-2.8,23.5-4.1,35.1c-4.1-2.9-7.9-6-12.8-7.2c-4.9-1.2-10.6-0.3-13.9,3.5c-3.1,3.6-3.2,8.8-2.8,13.5
					c0.8,8.8,3.3,17.5,7.2,25.5c-10.8,3.3-21.6,6.2-32.3,9.5C1440-579.4,1436.2-604.1,1435.2-628.9z"/>
			</g>
			<g>
				<path class="st4" d="M1638-557.2c1.4-9.7,2.9-19.5,4.3-29.2c0.8-5.7,1.7-11.4,2.5-17.1c2.3-16.2,4.5-32.7,4.9-49.1
					c0.1-2.8-0.1-4.7-3.1-5.2c-3.8-0.7-8-0.3-11.8-0.1c-7.9,0.4-15.7,1.7-23.3,3.8c0.8,32.9,1.6,66.2,2.3,99.1
					C1621.4-554.1,1630.4-555,1638-557.2z"/>
			</g>
			<g>
				<path class="st4" d="M1424.2-754.9l0.2,12.9c0,0,11.9,0,17-1.9s-0.5-10.3-0.5-10.3S1435.1-756.4,1424.2-754.9"/>
				<g>
					<path class="st4" d="M1437.1-690.3c0.7-4.7,1.4-9.3,2-14c0.4-2.7,0.8-5.5,1.2-8.2c1.1-7.8,2.2-15.6,2.3-23.5
						c0-1.3,0-2.2-1.5-2.5c-1.8-0.3-3.8-0.1-5.7,0c-3.8,0.2-7.5,0.8-11.2,1.8c0.4,15.7,0.8,31.6,1.1,47.4
						C1429.2-688.8,1433.5-689.3,1437.1-690.3z"/>
				</g>
			</g>
			<g>
				<path class="st4" d="M1650.5-687.8l0.7-7.8c0.4-4.8-3.3-9-8.1-9.1c-4.5-0.1-9.7-0.1-12.9,0.8c-4,1-3.4,5.5-2.4,8.9
					c0.9,2.8,3.1,4.9,5.9,5.7C1637.1-688.5,1642.7-687.5,1650.5-687.8"/>
				<g>
					<path class="st4" d="M1631-711.1c-0.9-5.9-1.7-11.9-2.6-17.8c-0.5-3.5-1-6.9-1.5-10.4c-1.4-9.9-2.8-19.9-3-29.9
						c0-1.7,0-2.8,1.9-3.2c2.3-0.4,4.9-0.2,7.2,0c4.8,0.2,9.6,1,14.2,2.3c-0.5,20-1,40.3-1.4,60.3
						C1641.1-709.2,1635.6-709.8,1631-711.1z"/>
				</g>
			</g>
			<g>
				<path class="st4" d="M1748.1-550.9l0.9-10.3c0.5-6.3-4.3-11.8-10.7-12c-5.9-0.2-12.7-0.1-16.9,1c-5.2,1.3-4.5,7.2-3.1,11.7
					c1.1,3.6,4,6.5,7.7,7.5C1730.5-551.7,1737.8-550.5,1748.1-550.9"/>
				<g>
					<path class="st4" d="M1722.5-581.4c-1.1-7.8-2.3-15.6-3.4-23.3c-0.7-4.6-1.3-9.1-2-13.7c-1.8-13-3.6-26.1-3.9-39.2
						c0-2.2,0.1-3.7,2.5-4.1c3-0.5,6.4-0.2,9.4-0.1c6.3,0.3,12.6,1.3,18.6,3c-0.6,26.3-1.3,52.9-1.9,79.1
						C1735.7-578.9,1728.5-579.7,1722.5-581.4z"/>
				</g>
			</g>
			<g>
				<path class="st4" d="M1591.6-694.1c5-2.3,9.9-4.5,14.9-6.8c0.9-12.7,2-25.1,2.9-37.8c3.9-0.6,7.8-1.2,11.6-1.8
					c0.3-7.4-0.4-14.4-2-21.6c-3.2,0.6-6.4,1.3-9.5,1.9c0.1-3.1,0.1-6.2,0.3-9.4c-9,0.3-18,0.6-26.9,0.9c0.5,4.7,0.6,9,1.1,13.7
					c-3,0.8-5.9,1.7-8.9,2.5c0.3,4.5-0.2,9.1,0.1,13.6c4,0,8.1-0.1,12.1-0.1C1588.2-724.6,1590.7-708.6,1591.6-694.1z"/>
			</g>
			<g>
				<path class="st4" d="M1570.6-692.6c1.1-7.4,2.2-14.9,3.3-22.3c0.6-4.3,1.3-8.7,1.9-13c1.7-12.4,3.5-24.9,3.7-37.4
					c0-2.1-0.1-3.6-2.4-4c-2.9-0.5-6.1-0.2-9-0.1c-6,0.3-12,1.3-17.8,2.9c0.6,25,1.2,50.4,1.8,75.5
					C1558-690.2,1564.9-691,1570.6-692.6z"/>
			</g>
			<g>
				<path class="st4" d="M1500.8-659.7c9.5-1,19.1-2,28.6-2.9c2.3,12.9,4,26,6.3,38.9c2.9-4.7,6.4-9.1,9.3-13.8
					c8.7,0.9,16.8,5.4,22,12.5c-4.8,11.6-12.6,22.6-22.1,30.8c10.1,6.3,21.9,8.6,33.8,8.1c-3.1,10.3-9.2,19.4-17.7,26
					c-9.2,0.1-18.4-3.4-25.2-9.5c1,4.9,1.9,9.7,2.9,14.6c-9.1,2.4-18.5,2.8-27.9,2C1507.8-587.9,1503.4-621,1500.8-659.7z"/>
			</g>
			<g>
				<path class="st4" d="M1483.8-770.7c7.3-0.7,14.6-1.5,21.8-2.2c1.8,9.8,3,19.8,4.8,29.6c2.2-3.6,4.8-6.9,7.1-10.5
					c6.6,0.7,12.8,4.1,16.7,9.5c-3.7,8.8-9.6,17.3-16.8,23.5c7.7,4.8,16.7,6.6,25.8,6.2c-2.4,7.8-7,14.8-13.5,19.8
					c-7,0.1-14-2.6-19.2-7.2c0.8,3.7,1.4,7.4,2.2,11.1c-7,1.8-14.1,2.2-21.3,1.5C1489.2-716,1485.8-741.2,1483.8-770.7z"/>
			</g>
			<path class="st4" d="M1438.3-600.1c-8.6,6.2-16,13.7-24.6,20c-2-2.5-1.6-1.9-3.6-4.4c4.8-12,11.3-26.8,15.4-39
				c-7.2-3-21.2-3.1-28.2-1.3c-7,1.8-13.6,5.5-18.5,10.9c-7.6,8.3-10.5,20.6-7.5,31.5c3,10.8,11.8,19.9,22.6,23.2
				c10.8,3.3,23.1,0.6,31.7-6.7c4.6-4,8.5-8.6,11.6-13.8c1.8-3,3.2-6.6,3.8-10.1C1441.6-593.4,1440.9-597.7,1438.3-600.1z
				 M1403.3-589.6c-0.8,2.3-1.7,4.8-2.5,7.1c-3.8-1.1-7-4-8.5-7.7c-1.5-3.6-1.3-8,0.6-11.4c1.9-3.5,5.4-6,9.2-6.7
				c2.5-0.5,5.1-0.3,7.1,1.1C1407.3-601.4,1405.3-595.5,1403.3-589.6z"/>
			<path class="st4" d="M1268.9-563.6c-8.6-6.2-18-10.9-26.6-17.2c1.7-2.7,1.3-2.1,3-4.8c12.9,0.8,29,2.4,41.9,2.5
				c0.6-7.7-3.6-21.1-7.5-27.3c-3.9-6.1-9.5-11.2-16.1-14.2c-10.3-4.6-22.9-3.5-32.2,2.7c-9.4,6.2-15.2,17.4-15,28.7
				c0.2,11.3,6.6,22.2,16.2,28c5.2,3.1,10.8,5.4,16.7,6.7c3.4,0.8,7.3,1,10.8,0.5C1263.6-558.3,1267.4-560.3,1268.9-563.6z
				 M1248.1-593.6c-2.5,0-5.1-0.2-7.5-0.2c-0.1-3.9,1.7-7.9,4.7-10.4c3-2.6,7.2-3.7,11-3c3.9,0.7,7.4,3.2,9.3,6.7
				c1.2,2.2,1.8,4.7,1.2,7.1C1260.5-593.4,1254.3-593.5,1248.1-593.6z"/>
			<g>
				<path class="st4" d="M1381.4-657.3h-76.7c-1.3,10.5-1,21.3,0.8,31.8c7.8,2.6,16.1,4.1,24.3,3c3.2,2.7,6.9,12.1,7.1,15.9
					c0.2,3.8-0.5,7.7-2.4,10.9s-5.3,5.6-9,5.6c-3.6,0.1-10.4-8.5-12.7-11c-6.4,11.5-13.5,23.3-19.9,34.8
					c10.4,10.4,25.5,15.4,39.8,13.2c14.3-2.2,27.3-11.6,34.2-24.7c6.9-13.1,7.6-29.5,1.8-43.2c6.1-0.4,12.2-1.2,18.3-1.6
					C1389-633.9,1385.9-646.9,1381.4-657.3z"/>
			</g>
			<g>
				<path class="st4" d="M1365.3-771.6l11.1,81.5c5.6-0.1,13.4-0.1,18.7-1.7c0.8-4.3-2.4-58.9-3.6-63.1c1.2-1.9,5.8-4.5,7.8-4.8
					c1.9-0.4,4-0.3,5.8,0.5c1.8,0.8,2.9,2.5,3.6,4.3c6.6,17.7-16.4,14.7-17.5,16.1c2.2,9-0.2,12.2,0.6,13.8
					c6,1.5,41.4-0.2,35.6-36.2c-1.2-7.5-8-13.4-15.3-16.1c-7.3-2.7-15.9-1.9-22.6,2.1"/>
			</g>
			<path class="st4" d="M1231-712.9c-1.7-7.9-0.3-15.3,4.3-22.2c4.6-6.8,11-11.1,19.1-12.8c8.1-1.7,15.7-0.4,22.6,4
				c6.9,4.4,11.3,10.6,13,18.5c1.7,7.9,0.2,15.3-4.3,22.2c-4.6,6.8-10.9,11.1-19,12.8c-8.1,1.7-15.7,0.4-22.6-4
				C1237-698.8,1232.7-705,1231-712.9z M1248-723.1l0.9,6.4c0.6,4.5,4.7,7.6,9.2,7.1l0.9-0.1c4.4-0.5,7.6-4.3,7.4-8.7l-0.3-6.6
				c-0.2-5-4.8-8.6-9.7-7.8l-1.5,0.3C1250.4-731.8,1247.4-727.6,1248-723.1z"/>
			<path class="st4" d="M1224.3-657.5c-2.7,34-5.5,68.5-8.2,102.6c-7.9,0.6-18.6,0.1-26.2-2.4c-0.2,0-0.3-0.1-0.5-0.2
				c-1-0.4-1.6-1.5-2.4-2.8c-7.5-13-13.6-27-19.6-40.7c-0.1,0.3-0.1,0.6-0.2,0.9c-2.3,14.3-4.7,28.8-8.7,42.7
				c-0.4,1.4-0.8,2.5-1.6,3.1c0,0,0,0-0.1,0c-0.1,0.1-0.2,0.1-0.3,0.2c0,0-0.1,0-0.1,0c-6.6,4.1-18.4,6.3-25.9,7.6
				c-10.3-31-20.7-62.5-31-93.5c6.6-4.2,13.7-7.7,21.1-10.4c3.5-1.3,7.5-2.9,11.3-3.4c3-0.4,3.7,1.4,4.5,4
				c2.8,9.9,4.9,20.1,6.7,30.3c2.4-7.2,4.8-14.3,7.3-21.5c0,0,0-0.1,0-0.1c0.9-2.7,1.8-5.3,2.7-8l-0.1-0.5l14.7-4.5v0.3
				c0,0,0,0,0.1,0c5.8,9.1,11.6,18.3,17.5,27.5c-0.7-10.8-1.1-21.6-0.7-32.3c0.1-2.9,0.3-4.8,3.5-5.2c3.9-0.5,8.3,0.2,12.3,0.6
				C1208.5-662,1216.6-660.2,1224.3-657.5z"/>
			<g>
				<path class="st4" d="M1261.7-766.6c-4.3,7.4-9.8,14.2-15.2,20.9c-1.9,2.3-3.8,4.7-5.8,7c-2.6,3.1-5.2,6.2-7.8,9.4
					c-0.1,2-0.3,4-0.4,6c-0.2,3-0.4,6-0.6,9c-0.6,8.5-1.3,17.2-2.9,25.5c-0.3,1.4-0.5,2.4-2.1,2.3c-2-0.1-9.2-2.1-11.1-2.6
					c-4-1.1-7.8-2.6-11.4-4.5c2.6-11,5.3-22.1,7.9-33.1c-2.8-4.1-5.7-8.3-8.5-12.4c-1.7-2.5-3.4-4.9-5.1-7.4
					c-4.8-7.1-9.7-14.2-13.6-21.8c-0.7-1.3-1-2.2,0.2-3.1c1.6-1.2,3.7-2,5.5-2.8c3.8-1.6,7.7-2.8,11.7-3.6
					c5.9,10.6,10.2,19.6,15.9,30.5c7-11.5,10.6-21,15.6-33.9c5.1,1.5,10.1,3.5,15,5.9c2.3,1.2,10.1,3.8,12.2,5.3
					C1262.9-768.8,1262.5-767.9,1261.7-766.6z"/>
			</g>
		</g>
	</g>
</g>
<g>
	<g id="XMLID_2_">
		<g>
			<path class="st4" d="M-725.7-56.3v63H-994v-63H-725.7z M-726.6,5.9v-61.3h-266.6V5.9H-726.6z"/>
			<path class="st2" d="M-726.6-55.5V5.9h-266.6v-61.3H-726.6z M-732.7,0.8v-51.2h-254.9V0.8H-732.7z"/>
			<path class="st4" d="M-732.7-50.4V0.8h-254.9v-51.2H-732.7z M-733.5,0v-49.6h-253.2V0H-733.5z"/>
			<rect x="-986.8" y="-49.6" class="st2" width="253.2" height="49.6"/>
		</g>
		<g>
		</g>
	</g>
</g>
<text transform="matrix(1 0 0 1 -962.774 -12.7469)" class="st4" style="font-family:'BerlinSansFB-Bold'; font-size:37.4683px;">Order Now!</text>
<g>
	<g id="XMLID_3_">
		<g>
			<path class="st4" d="M-492.9,192.1v63h-268.3v-63H-492.9z M-493.7,254.3v-61.3h-266.6v61.3H-493.7z"/>
			<path class="st2" d="M-493.7,192.9v61.3h-266.6v-61.3H-493.7z M-499.9,249.2V198h-254.9v51.2H-499.9z"/>
			<path class="st4" d="M-499.9,198v51.2h-254.9V198H-499.9z M-500.7,248.4v-49.6h-253.2v49.6H-500.7z"/>
			<rect x="-753.9" y="198.8" class="st2" width="253.2" height="49.6"/>
		</g>
		<g>
		</g>
	</g>
</g>
<text transform="matrix(1 0 0 1 -729.9269 235.6253)" class="st4" style="font-family:'BerlinSansFB-Bold'; font-size:37.4683px;">Order Now!</text>
<text transform="matrix(1 0 0 1 2032.8678 496.3239)" class="st3" style="font-family:'BerlinSansFB-Bold'; font-size:19.0047px;">Lorem ipsum</text>
<text transform="matrix(1 0 0 1 2362.0361 496.3239)" class="st3" style="font-family:'BerlinSansFB-Bold'; font-size:19.0047px;">Lorem ipsum</text>
<rect x="2024.8" y="520.1" style="fill:none;" width="139.6" height="89"/>
<text transform="matrix(1 0 0 1 2033.4087 528.611)"><tspan x="0" y="0" style="font-family:'BerlinSansFB-Bold'; font-size:12px;">Lorem ipsum dolor sit </tspan><tspan x="7.3" y="14.4" style="font-family:'BerlinSansFB-Bold'; font-size:12px;">amet, consectetuer </tspan><tspan x="7.7" y="28.8" style="font-family:'BerlinSansFB-Bold'; font-size:12px;">adipiscing elit, sed </tspan><tspan x="1.6" y="43.2" style="font-family:'BerlinSansFB-Bold'; font-size:12px;">diam nonummy nibh </tspan><tspan x="2" y="57.6" style="font-family:'BerlinSansFB-Bold'; font-size:12px;">euismod tincidunt ut </tspan><tspan x="-0.7" y="72" style="font-family:'BerlinSansFB-Bold'; font-size:12px;">laoreet dolore magna </tspan></text>
<rect x="2357.9" y="520.1" style="fill:none;" width="139.6" height="89"/>
<text transform="matrix(1 0 0 1 2366.5188 528.611)"><tspan x="0" y="0" style="font-family:'BerlinSansFB-Bold'; font-size:12px;">Lorem ipsum dolor sit </tspan><tspan x="7.3" y="14.4" style="font-family:'BerlinSansFB-Bold'; font-size:12px;">amet, consectetuer </tspan><tspan x="7.7" y="28.8" style="font-family:'BerlinSansFB-Bold'; font-size:12px;">adipiscing elit, sed </tspan><tspan x="1.6" y="43.2" style="font-family:'BerlinSansFB-Bold'; font-size:12px;">diam nonummy nibh </tspan><tspan x="2" y="57.6" style="font-family:'BerlinSansFB-Bold'; font-size:12px;">euismod tincidunt ut </tspan><tspan x="-0.7" y="72" style="font-family:'BerlinSansFB-Bold'; font-size:12px;">laoreet dolore magna </tspan></text>
<g>
	
		<image style="overflow:visible;opacity:0.65;" width="1000" height="274" xlink:href="5955770E.png"  transform="matrix(0.24 0 0 0.24 -1380.8 -1139.3069)">
	</image>
	<g>
		
			<text transform="matrix(1 0 0 1 -1372.6287 -1101.3799)" class="st3" style="font-family:'BerlinSansFB-Bold'; font-size:35.365px;">Lorem ipsum</text>
	</g>
</g>
<g>
	
		<image style="overflow:visible;opacity:0.65;" width="1095" height="292" xlink:href="E95A32D1.png"  transform="matrix(0.24 0 0 0.24 -1002.32 -1148.9069)">
	</image>
	<g>
		
			<text transform="matrix(1 0 0 1 -994.187 -1107.8896)" class="st3" style="font-family:'BerlinSansFB-Bold'; font-size:39.1092px;">Lorem ipsum</text>
	</g>
</g>
<g>
	
		<image style="overflow:visible;opacity:0.65;" width="1000" height="274" xlink:href="E95A32D2.png"  transform="matrix(0.24 0 0 0.24 -598.4 -1139.3069)">
	</image>
	<g>
		
			<text transform="matrix(1 0 0 1 -590.2458 -1101.3799)" class="st3" style="font-family:'BerlinSansFB-Bold'; font-size:35.365px;">Lorem ipsum</text>
	</g>
</g>
<g>
	
		<image style="overflow:visible;" width="1114" height="1451" xlink:href="E95A32D3.png"  transform="matrix(0.24 0 0 0.24 -678.5891 -934.4227)">
	</image>
	<g>
		<g>
			<defs>
				<rect id="SVGID_15_" x="-651.6" y="-910.4" width="205.5" height="299"/>
			</defs>
			<clipPath id="SVGID_16_">
				<use xlink:href="#SVGID_15_"  style="overflow:visible;"/>
			</clipPath>
		</g>
	</g>
</g>
<g>
	
		<image style="overflow:visible;" width="2947" height="1455" xlink:href="E95A32D4.png"  transform="matrix(0.24 0 0 0.24 -643.5491 -931.5427)">
	</image>
	<g>
		<g>
			<defs>
				<rect id="SVGID_17_" x="-404" y="-910.4" width="205.5" height="299"/>
			</defs>
			<clipPath id="SVGID_18_">
				<use xlink:href="#SVGID_17_"  style="overflow:visible;"/>
			</clipPath>
		</g>
	</g>
</g>
<g>
	
		<image style="overflow:visible;" width="1114" height="1451" xlink:href="E95A32D0.png"  transform="matrix(0.24 0 0 0.24 -1544.9675 -934.4227)">
	</image>
	<g>
		<g>
			<defs>
				<rect id="SVGID_19_" x="-1518" y="-910.4" width="205.5" height="299"/>
			</defs>
			<clipPath id="SVGID_20_">
				<use xlink:href="#SVGID_19_"  style="overflow:visible;"/>
			</clipPath>
		</g>
	</g>
</g>
<g>
	
		<image style="overflow:visible;" width="2947" height="1455" xlink:href="E95A32DE.png"  transform="matrix(0.24 0 0 0.24 -1509.9276 -931.5427)">
	</image>
	<g>
		<g>
			<defs>
				<rect id="SVGID_21_" x="-1270.4" y="-910.4" width="205.5" height="299"/>
			</defs>
			<clipPath id="SVGID_22_">
				<use xlink:href="#SVGID_21_"  style="overflow:visible;"/>
			</clipPath>
		</g>
	</g>
</g>
<rect x="-1475.4" y="-796.5" class="st5" width="43.8" height="63.7"/>
<rect x="-319.1" y="-796.5" class="st5" width="43.8" height="63.7"/>
<polygon class="st2" points="-284.1,-764.7 -298.3,-750.5 -310.4,-750.5 -296.2,-764.7 -296.2,-764.7 -310.4,-778.8 -298.3,-778.8 
	"/>
<polygon class="st2" points="-1466.6,-764.7 -1452.5,-750.5 -1440.4,-750.5 -1454.6,-764.7 -1454.5,-764.7 -1440.4,-778.8 
	-1452.5,-778.8 "/>
<g>
	
		<image style="overflow:visible;" width="702" height="176" xlink:href="E95A32DF.png"  transform="matrix(0.24 0 0 0.24 -953.84 -696.5069)">
	</image>
	<g>
		
			<text transform="matrix(1 0 0 1 -951.6959 -672.7465)" class="st3" style="font-family:'BerlinSansFB-Bold'; font-size:25.5861px;">Lorem ipsum</text>
	</g>
</g>
<rect x="1271.5" y="-300.1" class="st6" width="1252" height="103.1"/>
<rect x="1348.7" y="-266.9" style="fill:none;" width="591.2" height="24.2"/>
<text transform="matrix(1 0 0 1 1353.6797 -256.2656)" class="st3" style="font-family:'BerlinSansFB-Bold'; font-size:15px;">Lorem ipsum dolor sit amet, consectetuer adipiscing elit, sed diam nonummy nibh </text>
<image style="overflow:visible;" width="512" height="512" xlink:href="../../../../Downloads/instagram.png"  transform="matrix(8.471765e-02 0 0 8.471765e-02 2345.3555 -286.0699)">
</image>
<image style="overflow:visible;" width="512" height="512" xlink:href="../../../../Downloads/twitter.png"  transform="matrix(8.471765e-02 0 0 8.471765e-02 2285.7615 -286.0699)">
</image>
<image style="overflow:visible;" width="512" height="512" xlink:href="../../../../Downloads/facebook(1).png"  transform="matrix(8.471765e-02 0 0 8.471765e-02 2404.9492 -286.0699)">
</image>
<g>
	<rect x="-931.5" y="-652.4" style="fill:none;" width="116.7" height="42.4"/>
	<text transform="matrix(1 0 0 1 -925.999 -643.8669)"><tspan x="0" y="0" class="st3" style="font-family:'BerlinSansFB-Bold'; font-size:12px;">Lorem ipsum dolor </tspan><tspan x="5.8" y="14.4" class="st3" style="font-family:'BerlinSansFB-Bold'; font-size:12px;">sit amet, consec</tspan><tspan x="94.5" y="14.4" class="st3" style="font-family:'BerlinSansFB-Bold'; font-size:12px;">-</tspan><tspan x="35.2" y="28.8" class="st3" style="font-family:'BerlinSansFB-Bold'; font-size:12px;">tetuer </tspan></text>
</g>
<path class="st4" d="M-773.2-553.3H-971c-6.6,0-12-5.4-12-12v-13.9c0-6.6,5.4-12,12-12h197.8c6.6,0,12,5.4,12,12v13.9
	C-761.2-558.7-766.6-553.3-773.2-553.3z"/>
<g>
	
		<text transform="matrix(1 0 0 1 -948.8113 -564.4768)" class="st3" style="font-family:'BerlinSansFB-Bold'; font-size:25.5861px;">Add to order</text>
</g>
<g>
	
		<image style="overflow:visible;opacity:0.65;" width="1484" height="2176" xlink:href="E95A32FF.png"  transform="matrix(0.24 0 0 0.24 35.4641 -1229.1807)">
	</image>
	<g>
		<g>
			<defs>
				<rect id="SVGID_23_" x="50.6" y="-1211.2" width="321.1" height="467.2"/>
			</defs>
			<clipPath id="SVGID_24_">
				<use xlink:href="#SVGID_23_"  style="overflow:visible;"/>
			</clipPath>
		</g>
	</g>
</g>
<g>
	
		<image style="overflow:visible;" width="1114" height="1451" xlink:href="E95A32FD.png"  transform="matrix(0.24 0 0 0.24 406.2641 -1151.1807)">
	</image>
	<g>
		<g>
			<defs>
				<rect id="SVGID_25_" x="433.2" y="-1127.1" width="205.5" height="299"/>
			</defs>
			<clipPath id="SVGID_26_">
				<use xlink:href="#SVGID_25_"  style="overflow:visible;"/>
			</clipPath>
		</g>
	</g>
</g>
<g>
	
		<image style="overflow:visible;" width="2947" height="1455" xlink:href="E95A32F4.png"  transform="matrix(0.24 0 0 0.24 -425.0743 -1148.3007)">
	</image>
	<g>
		<g>
			<defs>
				<rect id="SVGID_27_" x="-185.6" y="-1127.1" width="205.5" height="299"/>
			</defs>
			<clipPath id="SVGID_28_">
				<use xlink:href="#SVGID_27_"  style="overflow:visible;"/>
			</clipPath>
		</g>
	</g>
</g>
<g>
	
		<image style="overflow:visible;" width="702" height="176" xlink:href="E95A32F5.png"  transform="matrix(0.24 0 0 0.24 130.96 -913.2269)">
	</image>
	<g>
		
			<text transform="matrix(1 0 0 1 133.1573 -889.5044)" class="st3" style="font-family:'BerlinSansFB-Bold'; font-size:25.5861px;">Lorem ipsum</text>
	</g>
</g>
<g>
	<rect x="153.4" y="-869.1" style="fill:none;" width="116.7" height="42.4"/>
	<text transform="matrix(1 0 0 1 158.8542 -860.6248)"><tspan x="0" y="0" class="st3" style="font-family:'BerlinSansFB-Bold'; font-size:12px;">Lorem ipsum dolor </tspan><tspan x="5.8" y="14.4" class="st3" style="font-family:'BerlinSansFB-Bold'; font-size:12px;">sit amet, consec</tspan><tspan x="94.5" y="14.4" class="st3" style="font-family:'BerlinSansFB-Bold'; font-size:12px;">-</tspan><tspan x="35.2" y="28.8" class="st3" style="font-family:'BerlinSansFB-Bold'; font-size:12px;">tetuer </tspan></text>
</g>
<path class="st4" d="M311.7-770.1H113.9c-6.6,0-12-5.4-12-12V-796c0-6.6,5.4-12,12-12h197.8c6.6,0,12,5.4,12,12v13.9
	C323.7-775.5,318.3-770.1,311.7-770.1z"/>
<g>
	<text transform="matrix(1 0 0 1 136.042 -781.2347)" class="st3" style="font-family:'BerlinSansFB-Bold'; font-size:25.5861px;">Add to order</text>
</g>
<rect x="-1775.9" y="821.4" class="st4" width="178.9" height="29.6"/>
<text transform="matrix(1 0 0 1 -1744.1129 842.1515)" class="st3" style="font-family:'BerlinSansFB-Bold'; font-size:19.0047px;">Lorem ipsum</text>
<g>
	<defs>
		<rect id="SVGID_29_" x="-1850.5" y="537.6" width="321.1" height="162"/>
	</defs>
	<clipPath id="SVGID_30_">
		<use xlink:href="#SVGID_29_"  style="overflow:visible;"/>
	</clipPath>
</g>
<rect x="-1756.6" y="723.5" style="fill:none;" width="139.6" height="89"/>
<text transform="matrix(1 0 0 1 -1747.9664 731.9544)"><tspan x="0" y="0" style="font-family:'BerlinSansFB-Bold'; font-size:12px;">Lorem ipsum dolor sit </tspan><tspan x="7.3" y="14.4" style="font-family:'BerlinSansFB-Bold'; font-size:12px;">amet, consectetuer </tspan><tspan x="7.7" y="28.8" style="font-family:'BerlinSansFB-Bold'; font-size:12px;">adipiscing elit, sed </tspan><tspan x="1.6" y="43.2" style="font-family:'BerlinSansFB-Bold'; font-size:12px;">diam nonummy nibh </tspan><tspan x="2" y="57.6" style="font-family:'BerlinSansFB-Bold'; font-size:12px;">euismod tincidunt ut </tspan><tspan x="-0.7" y="72" style="font-family:'BerlinSansFB-Bold'; font-size:12px;">laoreet dolore magna </tspan></text>
<g>
	
		<image style="overflow:visible;" width="1439" height="1345" xlink:href="E95A32C8.png"  transform="matrix(0.24 0 0 0.24 -1440.0314 529.6113)">
	</image>
	<g>
		<rect x="-1432" y="537.6" class="st3" width="321.1" height="298.6"/>
	</g>
</g>
<rect x="-1357.4" y="821.4" class="st4" width="178.9" height="29.6"/>
<text transform="matrix(1 0 0 1 -1325.6089 842.1515)" class="st3" style="font-family:'BerlinSansFB-Bold'; font-size:19.0047px;">Lorem ipsum</text>
<g>
	<defs>
		<rect id="SVGID_31_" x="-1432" y="537.6" width="321.1" height="162"/>
	</defs>
	<clipPath id="SVGID_32_">
		<use xlink:href="#SVGID_31_"  style="overflow:visible;"/>
	</clipPath>
</g>
<rect x="-1338.1" y="723.5" style="fill:none;" width="139.6" height="89"/>
<text transform="matrix(1 0 0 1 -1329.4624 731.9544)"><tspan x="0" y="0" style="font-family:'BerlinSansFB-Bold'; font-size:12px;">Lorem ipsum dolor sit </tspan><tspan x="7.3" y="14.4" style="font-family:'BerlinSansFB-Bold'; font-size:12px;">amet, consectetuer </tspan><tspan x="7.7" y="28.8" style="font-family:'BerlinSansFB-Bold'; font-size:12px;">adipiscing elit, sed </tspan><tspan x="1.6" y="43.2" style="font-family:'BerlinSansFB-Bold'; font-size:12px;">diam nonummy nibh </tspan><tspan x="2" y="57.6" style="font-family:'BerlinSansFB-Bold'; font-size:12px;">euismod tincidunt ut </tspan><tspan x="-0.7" y="72" style="font-family:'BerlinSansFB-Bold'; font-size:12px;">laoreet dolore magna </tspan></text>
<g>
	
		<image style="overflow:visible;" width="1439" height="1345" xlink:href="E95A32C3.png"  transform="matrix(0.24 0 0 0.24 -1027.7998 529.4764)">
	</image>
	<g>
		<rect x="-1019.7" y="537.6" class="st3" width="321.1" height="298.6"/>
	</g>
</g>
<rect x="-945.1" y="821.4" class="st4" width="178.9" height="29.6"/>
<text transform="matrix(1 0 0 1 -913.3279 842.1515)" class="st3" style="font-family:'BerlinSansFB-Bold'; font-size:19.0047px;">Lorem ipsum</text>
<g>
	<defs>
		<rect id="SVGID_33_" x="-1019.7" y="537.6" width="321.1" height="162"/>
	</defs>
	<clipPath id="SVGID_34_">
		<use xlink:href="#SVGID_33_"  style="overflow:visible;"/>
	</clipPath>
</g>
<rect x="-925.8" y="723.5" style="fill:none;" width="139.6" height="89"/>
<text transform="matrix(1 0 0 1 -917.1815 731.9544)"><tspan x="0" y="0" style="font-family:'BerlinSansFB-Bold'; font-size:12px;">Lorem ipsum dolor sit </tspan><tspan x="7.3" y="14.4" style="font-family:'BerlinSansFB-Bold'; font-size:12px;">amet, consectetuer </tspan><tspan x="7.7" y="28.8" style="font-family:'BerlinSansFB-Bold'; font-size:12px;">adipiscing elit, sed </tspan><tspan x="1.6" y="43.2" style="font-family:'BerlinSansFB-Bold'; font-size:12px;">diam nonummy nibh </tspan><tspan x="2" y="57.6" style="font-family:'BerlinSansFB-Bold'; font-size:12px;">euismod tincidunt ut </tspan><tspan x="-0.7" y="72" style="font-family:'BerlinSansFB-Bold'; font-size:12px;">laoreet dolore magna </tspan></text>
<g>
	
		<image style="overflow:visible;" width="1122" height="780" xlink:href="E95A32C4.png"  transform="matrix(0.24 0 0 0.24 -1868.6652 173.2113)">
	</image>
	<g>
		<g>
			<defs>
				<circle id="SVGID_35_" cx="-1705.5" cy="266.6" r="74.3"/>
			</defs>
			<clipPath id="SVGID_36_">
				<use xlink:href="#SVGID_35_"  style="overflow:visible;"/>
			</clipPath>
		</g>
	</g>
</g>
<g>
	
		<image style="overflow:visible;" width="1446" height="1747" xlink:href="E95A32C5.png"  transform="matrix(0.24 0 0 0.24 -1503.6251 126.1713)">
	</image>
	<g>
		<g>
			<defs>
				<circle id="SVGID_37_" cx="-1416.6" cy="266.6" r="74.3"/>
			</defs>
			<clipPath id="SVGID_38_">
				<use xlink:href="#SVGID_37_"  style="overflow:visible;"/>
			</clipPath>
		</g>
	</g>
</g>
<g>
	
		<image style="overflow:visible;" width="822" height="1175" xlink:href="E95A32C6.png"  transform="matrix(0.24 0 0 0.24 -1208.6652 172.2513)">
	</image>
	<g>
		<g>
			<defs>
				<circle id="SVGID_39_" cx="-1124.1" cy="266.6" r="74.3"/>
			</defs>
			<clipPath id="SVGID_40_">
				<use xlink:href="#SVGID_39_"  style="overflow:visible;"/>
			</clipPath>
		</g>
	</g>
</g>
<g>
	
		<image style="overflow:visible;" width="830" height="1192" xlink:href="E95A32C7.png"  transform="matrix(0.24 0 0 0.24 -951.6252 83.2113)">
	</image>
	<g>
		<g>
			<defs>
				<circle id="SVGID_41_" cx="-846.6" cy="266.6" r="74.3"/>
			</defs>
			<clipPath id="SVGID_42_">
				<use xlink:href="#SVGID_41_"  style="overflow:visible;"/>
			</clipPath>
		</g>
	</g>
</g>
<text transform="matrix(1 0 0 1 -1784.3702 379.4822)" class="st6" style="font-family:'BerlinSansFB-Bold'; font-size:25.5861px;">Lorem ipsum</text>
<text transform="matrix(1 0 0 1 -1494.6427 379.4822)" class="st6" style="font-family:'BerlinSansFB-Bold'; font-size:25.5861px;">Lorem ipsum</text>
<text transform="matrix(1 0 0 1 -1204.9152 379.4822)" class="st6" style="font-family:'BerlinSansFB-Bold'; font-size:25.5861px;">Lorem ipsum</text>
<text transform="matrix(1 0 0 1 -915.1876 379.4822)" class="st6" style="font-family:'BerlinSansFB-Bold'; font-size:25.5861px;">Lorem ipsum</text>
<rect x="-1772.6" y="390.9" style="fill:none;" width="127" height="94"/>
<text transform="matrix(1 0 0 1 -1770.2278 399.3773)"><tspan x="0" y="0" style="font-family:'BerlinSansFB-Bold'; font-size:12px;">Lorem ipsum dolor sit </tspan><tspan x="7.3" y="14.4" style="font-family:'BerlinSansFB-Bold'; font-size:12px;">amet, consectetuer </tspan><tspan x="7.7" y="28.8" style="font-family:'BerlinSansFB-Bold'; font-size:12px;">adipiscing elit, sed </tspan><tspan x="1.6" y="43.2" style="font-family:'BerlinSansFB-Bold'; font-size:12px;">diam nonummy nibh </tspan><tspan x="2" y="57.6" style="font-family:'BerlinSansFB-Bold'; font-size:12px;">euismod tincidunt ut </tspan><tspan x="-0.7" y="72" style="font-family:'BerlinSansFB-Bold'; font-size:12px;">laoreet dolore magna </tspan></text>
<rect x="-1480.1" y="390.9" style="fill:none;" width="127" height="94"/>
<text transform="matrix(1 0 0 1 -1477.7278 399.3773)"><tspan x="0" y="0" style="font-family:'BerlinSansFB-Bold'; font-size:12px;">Lorem ipsum dolor sit </tspan><tspan x="7.3" y="14.4" style="font-family:'BerlinSansFB-Bold'; font-size:12px;">amet, consectetuer </tspan><tspan x="7.7" y="28.8" style="font-family:'BerlinSansFB-Bold'; font-size:12px;">adipiscing elit, sed </tspan><tspan x="1.6" y="43.2" style="font-family:'BerlinSansFB-Bold'; font-size:12px;">diam nonummy nibh </tspan><tspan x="2" y="57.6" style="font-family:'BerlinSansFB-Bold'; font-size:12px;">euismod tincidunt ut </tspan><tspan x="-0.7" y="72" style="font-family:'BerlinSansFB-Bold'; font-size:12px;">laoreet dolore magna </tspan></text>
<rect x="-1187.6" y="390.9" style="fill:none;" width="127" height="94"/>
<text transform="matrix(1 0 0 1 -1185.2278 399.3773)"><tspan x="0" y="0" style="font-family:'BerlinSansFB-Bold'; font-size:12px;">Lorem ipsum dolor sit </tspan><tspan x="7.3" y="14.4" style="font-family:'BerlinSansFB-Bold'; font-size:12px;">amet, consectetuer </tspan><tspan x="7.7" y="28.8" style="font-family:'BerlinSansFB-Bold'; font-size:12px;">adipiscing elit, sed </tspan><tspan x="1.6" y="43.2" style="font-family:'BerlinSansFB-Bold'; font-size:12px;">diam nonummy nibh </tspan><tspan x="2" y="57.6" style="font-family:'BerlinSansFB-Bold'; font-size:12px;">euismod tincidunt ut </tspan><tspan x="-0.7" y="72" style="font-family:'BerlinSansFB-Bold'; font-size:12px;">laoreet dolore magna </tspan></text>
<rect x="-895.1" y="390.9" style="fill:none;" width="127" height="94"/>
<text transform="matrix(1 0 0 1 -892.7278 399.3773)"><tspan x="0" y="0" style="font-family:'BerlinSansFB-Bold'; font-size:12px;">Lorem ipsum dolor sit </tspan><tspan x="7.3" y="14.4" style="font-family:'BerlinSansFB-Bold'; font-size:12px;">amet, consectetuer </tspan><tspan x="7.7" y="28.8" style="font-family:'BerlinSansFB-Bold'; font-size:12px;">adipiscing elit, sed </tspan><tspan x="1.6" y="43.2" style="font-family:'BerlinSansFB-Bold'; font-size:12px;">diam nonummy nibh </tspan><tspan x="2" y="57.6" style="font-family:'BerlinSansFB-Bold'; font-size:12px;">euismod tincidunt ut </tspan><tspan x="-0.7" y="72" style="font-family:'BerlinSansFB-Bold'; font-size:12px;">laoreet dolore magna </tspan></text>
<circle class="st7" cx="-289.8" cy="506.8" r="42.9"/>
<polygon class="st2" points="-289.8,529.2 -314.1,505 -314.1,484.3 -289.8,508.6 -289.8,508.6 -265.6,484.3 -265.6,505 "/>
<g>
	
		<image style="overflow:visible;opacity:0.5;" width="3047" height="483" xlink:href="E95A3314.png"  transform="matrix(0.24 0 0 0.24 -19.04 -16.1069)">
	</image>
	<g>
		<g>
			<path class="st4" d="M215.8,51.3c-1.4,5.6-5.2,10.6-10.4,13.3c-5.2,2.7-11.6,2.8-16.8,0.3s-9.1-7.7-9.9-13.5
				c-0.9-7,2.9-14.3,8.9-18s13.8-4.2,20.5-1.7l-5.8,8c-2.8-1-5.8-0.4-6.9,0.3c-2.5,1.6-4.1,4.6-3.7,7.5c0.3,2.4,1.9,4.6,4.1,5.6
				c2.2,1,5,0.9,7-0.1c0.8-0.4,2.2-2.8,2.7-5.1L215.8,51.3z"/>
			<path class="st4" d="M86.7,26.1h-12c0,0-5.7,28.3,0.8,34.9c6.1,6.1,12.8,5.9,15.6,5.7c7.1-0.4,13.4-1.4,16.7-8.2
				c3.3-6.8,5-28.3,5-28.3l-11.5-1.3c0,0-0.6,27.1-10.2,27S85.3,32.5,86.7,26.1z"/>
			<g>
				<path class="st4" d="M638.7,62.9c3.5-1.6,7-3.2,10.4-4.8c0.6-8.9,1.4-17.6,2-26.4c2.7-0.4,5.4-0.8,8.1-1.3
					c0.2-5.2-0.2-10.1-1.4-15.1c-2.2,0.4-4.4,0.9-6.7,1.3c0.1-2.2,0.1-4.3,0.2-6.5c-6.3,0.2-12.6,0.4-18.8,0.6
					c0.3,3.3,0.4,6.3,0.8,9.6c-2.1,0.6-4.1,1.2-6.3,1.7c0.2,3.1-0.1,6.4,0.1,9.5c2.8,0,5.7-0.1,8.5-0.1
					C636.4,41.6,638.1,52.7,638.7,62.9z"/>
			</g>
			<g>
				<path class="st4" d="M516,25.7c4.8-0.3,9.5-0.6,14.3-0.9c0.1,1.2,0.2,2.4,0.3,3.7c5.2-6.2,14.4-8.6,22.1-6.1
					c-0.7,6.2-1.5,12.5-2.2,18.7c-2.2-1.5-4.2-3.2-6.8-3.8c-2.6-0.6-5.7-0.2-7.4,1.9c-1.6,1.9-1.7,4.7-1.5,7.2
					c0.4,4.7,1.7,9.3,3.8,13.6c-5.7,1.8-11.5,3.3-17.2,5.1C518.6,52.1,516.5,38.9,516,25.7z"/>
			</g>
			<g>
				<path class="st4" d="M624.1,63.9c0.8-5.2,1.5-10.4,2.3-15.6c0.4-3,0.9-6.1,1.3-9.1c1.2-8.7,2.4-17.4,2.6-26.2
					c0-1.5,0-2.5-1.7-2.8c-2-0.3-4.3-0.1-6.3,0c-4.2,0.2-8.4,0.9-12.4,2c0.4,17.5,0.8,35.3,1.2,52.8
					C615.3,65.6,620.1,65.1,624.1,63.9z"/>
			</g>
			<g>
				<path class="st4" d="M167.7,20.4l0.2,9.1c0,0,8.3,0,11.9-1.3c3.5-1.3-0.4-7.2-0.4-7.2S175.4,19.3,167.7,20.4"/>
				<g>
					<path class="st4" d="M176.8,65.5c0.5-3.3,1-6.5,1.4-9.8c0.3-1.9,0.6-3.8,0.8-5.7c0.8-5.4,1.5-10.9,1.6-16.4c0-0.9,0-1.6-1-1.7
						c-1.3-0.2-2.7-0.1-4,0c-2.6,0.1-5.3,0.6-7.8,1.3c0.3,11,0.5,22.1,0.8,33.1C171.3,66.6,174.3,66.2,176.8,65.5z"/>
				</g>
			</g>
			<g>
				<path class="st4" d="M326,67.3l0.5-5.5c0.3-3.4-2.3-6.3-5.7-6.4c-3.1-0.1-6.8,0-9,0.5c-2.8,0.7-2.4,3.8-1.7,6.2
					c0.6,1.9,2.1,3.4,4.1,4C316.6,66.8,320.6,67.5,326,67.3"/>
				<g>
					<path class="st4" d="M312.4,51c-0.6-4.1-1.2-8.3-1.8-12.4c-0.4-2.4-0.7-4.9-1-7.3c-1-6.9-1.9-13.9-2.1-20.9c0-1.2,0-2,1.3-2.2
						c1.6-0.3,3.4-0.1,5,0c3.4,0.2,6.7,0.7,9.9,1.6c-0.3,14-0.7,28.2-1,42.2C319.4,52.3,315.6,51.9,312.4,51z"/>
				</g>
			</g>
			<g>
				<path class="st4" d="M682.8,67.3l0.5-5.5c0.3-3.4-2.3-6.3-5.7-6.4c-3.1-0.1-6.8,0-9,0.5c-2.8,0.7-2.4,3.8-1.7,6.2
					c0.6,1.9,2.1,3.4,4.1,4C673.4,66.8,677.3,67.5,682.8,67.3"/>
				<g>
					<path class="st4" d="M669.1,51c-0.6-4.1-1.2-8.3-1.8-12.4c-0.4-2.4-0.7-4.9-1-7.3c-1-6.9-1.9-13.9-2.1-20.9c0-1.2,0-2,1.3-2.2
						c1.6-0.3,3.4-0.1,5,0c3.4,0.2,6.7,0.7,9.9,1.6c-0.3,14-0.7,28.2-1,42.2C676.1,52.3,672.3,51.9,669.1,51z"/>
				</g>
			</g>
			<g>
				<path class="st4" d="M284.8,62.9c3.5-1.6,7-3.2,10.4-4.8c0.6-8.9,1.4-17.6,2-26.4c2.7-0.4,5.4-0.8,8.1-1.3
					c0.2-5.2-0.2-10.1-1.4-15.1c-2.2,0.4-4.4,0.9-6.7,1.3c0.1-2.2,0.1-4.3,0.2-6.5c-6.3,0.2-12.6,0.4-18.8,0.6
					c0.3,3.3,0.4,6.3,0.8,9.6c-2.1,0.6-4.1,1.2-6.3,1.7c0.2,3.1-0.1,6.4,0.1,9.5c2.8,0,5.7-0.1,8.5-0.1
					C282.5,41.6,284.2,52.7,284.8,62.9z"/>
			</g>
			<g>
				<path class="st4" d="M270.2,63.9c0.8-5.2,1.5-10.4,2.3-15.6c0.4-3,0.9-6.1,1.3-9.1c1.2-8.7,2.4-17.4,2.6-26.2
					c0-1.5,0-2.5-1.7-2.8c-2-0.3-4.3-0.1-6.3,0c-4.2,0.2-8.4,0.9-12.4,2c0.4,17.5,0.8,35.3,1.2,52.8
					C261.3,65.6,266.1,65.1,270.2,63.9z"/>
			</g>
			<g>
				<path class="st4" d="M551,9.3c5.1-0.5,10.2-1,15.3-1.6c1.2,6.9,2.1,13.8,3.3,20.7c1.6-2.5,3.4-4.9,5-7.3c4.6,0.5,9,2.9,11.7,6.6
					c-2.6,6.2-6.7,12.1-11.8,16.4c5.4,3.4,11.7,4.6,18,4.3c-1.7,5.5-4.9,10.3-9.5,13.9c-4.9,0.1-9.8-1.8-13.4-5.1
					c0.5,2.6,1,5.2,1.5,7.8c-4.9,1.3-9.9,1.5-14.9,1.1C554.7,47.5,552.4,29.9,551,9.3z"/>
			</g>
			<g>
				<path class="st4" d="M209.5,9.3c5.1-0.5,10.2-1,15.3-1.6c1.2,6.9,2.1,13.8,3.3,20.7c1.6-2.5,3.4-4.9,5-7.3
					c4.6,0.5,9,2.9,11.7,6.6c-2.6,6.2-6.7,12.1-11.8,16.4c5.4,3.4,11.7,4.6,18,4.3c-1.7,5.5-4.9,10.3-9.5,13.9
					c-4.9,0.1-9.8-1.8-13.4-5.1c0.5,2.6,1,5.2,1.5,7.8c-4.9,1.3-9.9,1.5-14.9,1.1C213.2,47.5,210.9,29.9,209.5,9.3z"/>
			</g>
			<path class="st4" d="M517.7,41c-4.6,3.3-8.5,7.3-13.1,10.6c-1.1-1.3-0.8-1-1.9-2.3c2.6-6.4,6-14.3,8.2-20.8
				c-3.8-1.6-11.3-1.7-15.1-0.7c-3.7,1-7.3,2.9-9.9,5.8c-4,4.4-5.6,11-4,16.8c1.6,5.8,6.3,10.6,12,12.3c5.7,1.7,12.3,0.3,16.9-3.6
				c2.4-2.1,4.5-4.6,6.2-7.4c1-1.6,1.7-3.5,2-5.4C519.5,44.6,519.1,42.3,517.7,41z M499,46.6c-0.4,1.2-0.9,2.5-1.3,3.8
				c-2-0.6-3.7-2.1-4.5-4.1c-0.8-1.9-0.7-4.2,0.3-6.1c1-1.8,2.9-3.2,4.9-3.6c1.3-0.2,2.7-0.1,3.8,0.6
				C501.2,40.4,500.1,43.5,499,46.6z"/>
			<path class="st4" d="M427.4,60.5c-4.6-3.3-9.6-5.8-14.2-9.1c0.9-1.4,0.7-1.1,1.6-2.5c6.9,0.4,15.4,1.3,22.3,1.4
				c0.3-4.1-1.9-11.3-4-14.5c-2.1-3.3-5-6-8.6-7.6c-5.5-2.4-12.2-1.9-17.2,1.4c-5,3.3-8.1,9.3-8,15.3c0.1,6,3.5,11.8,8.6,14.9
				c2.8,1.7,5.8,2.9,8.9,3.6c1.8,0.4,3.9,0.5,5.7,0.3C424.6,63.3,426.7,62.3,427.4,60.5z M416.3,44.6c-1.3,0-2.7-0.1-4-0.1
				c-0.1-2.1,0.9-4.2,2.5-5.6c1.6-1.4,3.8-2,5.9-1.6c2.1,0.4,3.9,1.7,4.9,3.6c0.6,1.2,1,2.5,0.6,3.8
				C422.9,44.6,419.6,44.6,416.3,44.6z"/>
			<g>
				<path class="st4" d="M487.3,10.6h-40.9c-0.7,5.6-0.5,11.4,0.4,16.9c4.2,1.4,8.6,2.2,12.9,1.6c1.7,1.4,3.7,6.5,3.8,8.5
					c0.1,2-0.2,4.1-1.3,5.8s-2.8,3-4.8,3c-1.9,0-5.5-4.5-6.8-5.8c-3.4,6.1-7.2,12.4-10.6,18.5c5.5,5.5,13.6,8.2,21.2,7
					c7.6-1.2,14.5-6.2,18.2-13.2s4.1-15.7,1-23c3.3-0.2,6.5-0.6,9.8-0.9C491.4,23.1,489.8,16.1,487.3,10.6z"/>
			</g>
			<g>
				<path class="st4" d="M126.6,8.7l7.7,57c3.9-0.1,9.4-0.1,13.1-1.2c0.6-3-1.7-41.2-2.5-44.1c0.8-1.3,4.1-3.1,5.4-3.4
					c1.4-0.3,2.8-0.2,4.1,0.3s2,1.7,2.5,3c4.6,12.4-11.5,10.3-12.3,11.2c1.5,6.3-0.1,8.5,0.4,9.7c4.2,1,29-0.2,24.9-25.3
					c-0.8-5.2-5.6-9.3-10.7-11.2c-5.1-1.9-11.1-1.3-15.8,1.5"/>
			</g>
			<path class="st4" d="M32.7,49.7c-1.2-5.6-0.2-10.7,3-15.5c3.2-4.8,7.7-7.8,13.4-9c5.7-1.2,11-0.3,15.8,2.8
				c4.9,3.1,7.9,7.4,9.1,12.9c1.2,5.6,0.1,10.7-3,15.5c-3.2,4.8-7.6,7.8-13.3,9c-5.7,1.2-11,0.3-15.8-2.8
				C36.9,59.6,33.8,55.3,32.7,49.7z M44.6,42.6l0.6,4.5c0.4,3.1,3.3,5.3,6.4,5l0.7-0.1c3.1-0.3,5.3-3,5.2-6.1l-0.2-4.6
				c-0.2-3.5-3.3-6-6.8-5.5L49.4,36C46.3,36.5,44.1,39.5,44.6,42.6z"/>
			<path class="st4" d="M403.7,10.5c-1.4,18.1-2.9,36.5-4.4,54.7c-4.2,0.3-9.9,0.1-14-1.3c-0.1,0-0.2-0.1-0.3-0.1
				c-0.5-0.2-0.9-0.8-1.3-1.5c-4-6.9-7.2-14.4-10.4-21.7c0,0.2-0.1,0.3-0.1,0.5c-1.2,7.6-2.5,15.3-4.7,22.8
				c-0.2,0.7-0.4,1.3-0.8,1.6c0,0,0,0,0,0c0,0-0.1,0.1-0.1,0.1c0,0,0,0,0,0c-3.5,2.2-9.8,3.4-13.8,4.1c-5.5-16.5-11-33.3-16.5-49.8
				c3.5-2.3,7.3-4.1,11.2-5.5c1.9-0.7,4-1.5,6-1.8c1.6-0.2,2,0.7,2.4,2.1c1.5,5.3,2.6,10.7,3.6,16.2c1.3-3.8,2.6-7.6,3.9-11.4
				c0,0,0,0,0,0c0.5-1.4,1-2.8,1.4-4.3l0-0.3l7.8-2.4v0.2c0,0,0,0,0,0c3.1,4.9,6.2,9.8,9.3,14.7c-0.4-5.7-0.6-11.5-0.4-17.2
				c0.1-1.5,0.2-2.6,1.9-2.8c2.1-0.2,4.4,0.1,6.5,0.3C395.3,8.1,399.5,9.1,403.7,10.5z"/>
			<g>
				<path class="st4" d="M54.2,12.2c-3,5.2-6.8,9.9-10.6,14.6c-1.3,1.6-2.7,3.3-4,4.9c-1.8,2.2-3.6,4.4-5.4,6.6
					c-0.1,1.4-0.2,2.8-0.3,4.2c-0.1,2.1-0.3,4.2-0.4,6.3c-0.4,6-0.9,12-2,17.9c-0.2,1-0.4,1.7-1.5,1.6c-1.4-0.1-6.5-1.5-7.8-1.8
					c-2.8-0.7-5.4-1.8-8-3.1c1.8-7.7,3.7-15.4,5.6-23.1c-2-2.9-4-5.8-6-8.7c-1.2-1.7-2.4-3.5-3.6-5.2c-3.4-4.9-6.8-10-9.5-15.3
					c-0.5-0.9-0.7-1.5,0.2-2.2c1.1-0.8,2.6-1.4,3.8-1.9c2.6-1.1,5.4-2,8.2-2.5c4.1,7.4,7.1,13.7,11.1,21.3C28.8,17.6,31.3,11,34.8,2
					c3.6,1.1,7.1,2.5,10.5,4.1c1.6,0.8,7.1,2.6,8.5,3.7C54.9,10.7,54.7,11.3,54.2,12.2z"/>
			</g>
		</g>
	</g>
</g>
</svg>
