<?xml version="1.0" encoding="utf-8"?>
<!-- Generator: Adobe Illustrator 24.1.1, SVG Export Plug-In . SVG Version: 6.00 Build 0)  -->
<svg version="1.1" id="_x31_200" xmlns="http://www.w3.org/2000/svg" xmlns:xlink="http://www.w3.org/1999/xlink" x="0px" y="0px"
	 viewBox="0 0 689.79 268" style="enable-background:new 0 0 689.79 268;" xml:space="preserve">
<style type="text/css">
	.st0{fill:#CD2A2A;}
</style>
<g>
	<path class="st0" d="M413.45,87.69c-2,8.05-7.5,15.22-14.88,19.01c-7.38,3.79-16.53,4.06-24.01,0.47
		c-7.48-3.59-13.04-11.03-14.11-19.26c-1.31-10.05,4.19-20.4,12.78-25.77c8.59-5.37,19.75-5.94,29.25-2.41l-8.28,11.38
		c-3.96-1.47-8.24-0.64-9.92,0.4c-3.58,2.24-5.88,6.56-5.33,10.75c0.45,3.43,2.77,6.53,5.89,8.03c3.12,1.5,7.13,1.3,10.01-0.19
		c1.1-0.57,3.09-3.97,3.93-7.33L413.45,87.69z"/>
	<path class="st0" d="M228.94,51.64h-17.21c0,0-8.13,40.51,1.18,49.87c8.73,8.78,18.32,8.44,22.34,8.22
		c10.11-0.55,19.1-1.97,23.85-11.75c4.75-9.79,7.14-40.45,7.14-40.45l-16.51-1.88c0,0-0.9,38.76-14.64,38.68
		C221.36,94.25,226.86,60.89,228.94,51.64z"/>
	<g>
		<path class="st0" d="M586.14,239.25c6.52-2.96,13.05-5.97,19.57-8.93c1.21-16.61,2.61-32.96,3.82-49.57
			c5.11-0.83,10.18-1.56,15.29-2.39c0.37-9.73-0.47-18.89-2.61-28.39c-4.15,0.8-8.35,1.73-12.5,2.53c0.17-4.13,0.18-8.14,0.34-12.27
			c-11.79,0.4-23.57,0.8-35.36,1.2c0.66,6.15,0.82,11.8,1.47,17.95c-3.96,1.04-7.77,2.23-11.73,3.27c0.39,5.9-0.24,11.94,0.15,17.83
			c5.28-0.05,10.63-0.11,15.91-0.16C581.7,199.31,584.94,220.25,586.14,239.25z"/>
	</g>
	<g>
		<path class="st0" d="M355.81,169.49c8.92-0.58,17.84-1.16,26.76-1.74c0.22,2.3,0.43,4.56,0.65,6.86
			c9.73-11.69,27.06-16.08,41.52-11.38c-1.33,11.62-2.77,23.5-4.1,35.12c-4.11-2.9-7.93-6-12.8-7.22
			c-4.88-1.21-10.62-0.3-13.86,3.53c-3.06,3.62-3.22,8.83-2.78,13.55c0.83,8.85,3.28,17.54,7.18,25.53
			c-10.76,3.31-21.56,6.2-32.32,9.51C360.65,218.98,356.79,194.34,355.81,169.49z"/>
	</g>
	<g>
		<path class="st0" d="M558.6,241.25c1.43-9.75,2.86-19.49,4.28-29.24c0.84-5.7,1.67-11.41,2.47-17.12
			c2.26-16.24,4.53-32.72,4.86-49.14c0.06-2.78-0.08-4.66-3.11-5.19c-3.75-0.65-8.03-0.27-11.82-0.08
			c-7.89,0.39-15.73,1.67-23.33,3.81c0.76,32.87,1.57,66.18,2.33,99.06C542.04,244.35,551.07,243.38,558.6,241.25z"/>
	</g>
	<g>
		<path class="st0" d="M344.79,43.57l0.22,12.95c0,0,11.92-0.02,16.99-1.89s-0.52-10.34-0.52-10.34S355.78,42.03,344.79,43.57"/>
		<g>
			<path class="st0" d="M357.73,108.1c0.68-4.66,1.37-9.32,2.05-13.98c0.4-2.73,0.8-5.46,1.18-8.19c1.08-7.77,2.17-15.65,2.32-23.5
				c0.03-1.33-0.04-2.23-1.49-2.48c-1.79-0.31-3.84-0.13-5.65-0.04c-3.77,0.19-7.52,0.8-11.16,1.82
				c0.36,15.72,0.75,31.65,1.11,47.37C349.81,109.58,354.13,109.11,357.73,108.1z"/>
		</g>
	</g>
	<g>
		<path class="st0" d="M571.14,110.62l0.66-7.85c0.4-4.81-3.31-8.98-8.14-9.13c-4.5-0.14-9.68-0.06-12.89,0.77
			c-3.96,1.02-3.44,5.49-2.37,8.94c0.86,2.78,3.07,4.93,5.88,5.68C557.73,109.95,563.34,110.92,571.14,110.62"/>
		<g>
			<path class="st0" d="M551.62,87.35c-0.87-5.93-1.74-11.86-2.61-17.79c-0.51-3.47-1.02-6.94-1.5-10.42
				c-1.38-9.88-2.76-19.91-2.96-29.9c-0.03-1.69,0.05-2.84,1.89-3.16c2.28-0.4,4.89-0.16,7.19-0.05c4.8,0.24,9.57,1.01,14.2,2.32
				c-0.46,20-0.96,40.27-1.42,60.28C561.69,89.23,556.2,88.64,551.62,87.35z"/>
		</g>
	</g>
	<g>
		<path class="st0" d="M668.72,247.56l0.86-10.3c0.53-6.32-4.35-11.78-10.69-11.98c-5.9-0.18-12.7-0.08-16.91,1.01
			c-5.2,1.34-4.52,7.2-3.11,11.73c1.13,3.65,4.03,6.47,7.71,7.45C651.12,246.68,658.48,247.95,668.72,247.56"/>
		<g>
			<path class="st0" d="M643.1,217.02c-1.14-7.78-2.28-15.57-3.42-23.35c-0.67-4.56-1.34-9.11-1.97-13.67
				c-1.8-12.97-3.62-26.13-3.88-39.24c-0.04-2.22,0.06-3.72,2.48-4.14c3-0.52,6.42-0.21,9.44-0.06c6.3,0.31,12.56,1.33,18.63,3.04
				c-0.6,26.25-1.25,52.86-1.86,79.11C656.32,219.49,649.11,218.72,643.1,217.02z"/>
		</g>
	</g>
	<g>
		<path class="st0" d="M512.22,104.28c4.97-2.26,9.94-4.55,14.91-6.8c0.92-12.66,1.99-25.12,2.91-37.77
			c3.89-0.64,7.76-1.19,11.65-1.82c0.28-7.41-0.36-14.39-1.99-21.63c-3.16,0.61-6.36,1.32-9.52,1.93c0.13-3.15,0.13-6.2,0.26-9.35
			c-8.98,0.3-17.96,0.61-26.94,0.91c0.5,4.69,0.62,8.99,1.12,13.68c-3.02,0.79-5.92,1.7-8.94,2.49c0.3,4.49-0.18,9.09,0.12,13.59
			c4.02-0.04,8.1-0.08,12.12-0.12C508.84,73.85,511.31,89.81,512.22,104.28z"/>
	</g>
	<g>
		<path class="st0" d="M491.24,105.81c1.09-7.43,2.18-14.85,3.26-22.28c0.64-4.35,1.27-8.69,1.88-13.04
			c1.72-12.37,3.45-24.93,3.7-37.44c0.04-2.12-0.06-3.55-2.37-3.95c-2.86-0.5-6.12-0.2-9.01-0.06c-6.01,0.3-11.98,1.27-17.78,2.9
			c0.58,25.05,1.2,50.43,1.77,75.48C478.62,108.17,485.5,107.43,491.24,105.81z"/>
	</g>
	<g>
		<path class="st0" d="M421.41,138.73c9.55-0.98,19.1-1.96,28.65-2.93c2.31,12.89,3.97,25.98,6.28,38.87
			c2.95-4.67,6.36-9.11,9.31-13.79c8.72,0.86,16.84,5.35,21.97,12.46c-4.81,11.55-12.58,22.64-22.08,30.79
			c10.09,6.34,21.91,8.61,33.82,8.14c-3.15,10.29-9.25,19.4-17.74,26.01c-9.15,0.12-18.41-3.37-25.2-9.51
			c1,4.88,1.89,9.74,2.89,14.62c-9.13,2.36-18.52,2.84-27.92,2.03C428.41,210.49,424,177.42,421.41,138.73z"/>
	</g>
	<g>
		<path class="st0" d="M404.48,27.7c7.28-0.74,14.55-1.49,21.83-2.23c1.76,9.82,3.03,19.8,4.78,29.62c2.25-3.56,4.85-6.94,7.09-10.5
			c6.65,0.65,12.83,4.08,16.74,9.49c-3.67,8.8-9.59,17.25-16.82,23.46c7.69,4.83,16.7,6.56,25.77,6.2
			c-2.4,7.84-7.05,14.78-13.52,19.82c-6.98,0.09-14.03-2.57-19.2-7.25c0.76,3.72,1.44,7.42,2.2,11.14
			c-6.96,1.8-14.11,2.17-21.27,1.55C409.81,82.37,406.45,57.17,404.48,27.7z"/>
	</g>
	<path class="st0" d="M358.92,198.28c-8.6,6.2-15.96,13.75-24.56,19.95c-2.04-2.5-1.56-1.87-3.6-4.37
		c4.8-12.03,11.29-26.8,15.42-39.02c-7.16-2.98-21.22-3.1-28.25-1.3c-7.03,1.8-13.63,5.51-18.5,10.89
		c-7.55,8.34-10.47,20.64-7.46,31.48c3.01,10.84,11.83,19.89,22.6,23.15c10.77,3.26,23.13,0.64,31.65-6.71
		c4.58-3.96,8.45-8.65,11.6-13.82c1.84-3.02,3.19-6.59,3.82-10.07C362.27,204.98,361.52,200.67,358.92,198.28z M323.93,208.78
		c-0.8,2.33-1.72,4.78-2.48,7.12c-3.77-1.13-6.97-4.03-8.47-7.67c-1.5-3.64-1.27-7.95,0.6-11.42c1.88-3.46,5.36-6.01,9.23-6.74
		c2.45-0.46,5.06-0.26,7.15,1.11C327.95,197.05,325.94,202.91,323.93,208.78z"/>
	<path class="st0" d="M189.55,234.86c-8.57-6.25-18.02-10.9-26.59-17.15c1.74-2.72,1.29-2.06,3.04-4.78
		c12.92,0.82,28.98,2.41,41.88,2.54c0.61-7.73-3.64-21.13-7.54-27.25c-3.89-6.13-9.47-11.25-16.09-14.21
		c-10.27-4.59-22.87-3.54-32.24,2.68c-9.38,6.22-15.23,17.42-14.99,28.67c0.24,11.25,6.57,22.19,16.2,28
		c5.18,3.13,10.85,5.35,16.74,6.74c3.44,0.81,7.25,0.99,10.76,0.5C184.22,240.13,188.09,238.08,189.55,234.86z M168.71,204.86
		c-2.46-0.03-5.08-0.15-7.54-0.15c-0.09-3.94,1.67-7.88,4.66-10.44c2.99-2.56,7.16-3.68,11.04-2.97c3.87,0.71,7.38,3.23,9.27,6.69
		c1.2,2.19,1.82,4.73,1.17,7.14C181.11,205.04,174.91,204.95,168.71,204.86z"/>
	<g>
		<path class="st0" d="M301.99,141.14h-76.7c-1.27,10.55-0.96,21.3,0.78,31.78c7.84,2.62,16.11,4.14,24.27,2.98
			c3.2,2.72,6.94,12.12,7.12,15.89c0.18,3.77-0.46,7.68-2.41,10.88c-1.95,3.19-5.34,5.56-8.99,5.63
			c-3.65,0.07-10.35-8.49-12.7-10.96c-6.41,11.47-13.5,23.28-19.91,34.75c10.35,10.39,25.51,15.4,39.77,13.18
			c14.26-2.22,27.3-11.64,34.25-24.72c6.95-13.08,7.64-29.54,1.82-43.2c6.12-0.44,12.2-1.19,18.32-1.62
			C309.63,164.51,306.58,151.5,301.99,141.14z"/>
	</g>
	<g>
		<path class="st0" d="M285.9,26.79l11.06,81.47c5.57-0.08,13.42-0.1,18.74-1.74c0.81-4.26-2.44-58.91-3.61-63.07
			c1.19-1.86,5.81-4.46,7.76-4.82s4.02-0.3,5.82,0.49s2.89,2.48,3.56,4.27c6.62,17.74-16.43,14.68-17.55,16.07
			c2.21,9.02-0.18,12.16,0.62,13.81c6.04,1.47,41.42-0.23,35.64-36.21c-1.2-7.47-7.97-13.37-15.26-16.05
			c-7.29-2.69-15.89-1.89-22.58,2.1"/>
	</g>
	<path class="st0" d="M151.65,85.51c-1.7-7.95-0.27-15.33,4.28-22.16c4.59-6.83,10.95-11.11,19.09-12.84
		c8.14-1.74,15.68-0.41,22.62,3.99c6.94,4.4,11.26,10.55,12.96,18.46c1.66,7.95,0.21,15.33-4.34,22.16
		c-4.55,6.83-10.9,11.11-19.04,12.84c-8.14,1.74-15.68,0.41-22.62-3.99C157.63,99.61,153.31,93.46,151.65,85.51z M168.67,75.32
		l0.92,6.42c0.64,4.46,4.7,7.6,9.18,7.11l0.94-0.1c4.39-0.48,7.64-4.3,7.42-8.71l-0.32-6.57c-0.24-4.99-4.78-8.65-9.71-7.83
		l-1.55,0.26C171.09,66.64,168.02,70.83,168.67,75.32z"/>
	<path class="st0" d="M144.96,140.91c-2.69,34.04-5.47,68.53-8.18,102.58c-7.92,0.57-18.57,0.12-26.22-2.38
		c-0.17-0.04-0.33-0.1-0.5-0.16c-0.95-0.41-1.61-1.46-2.38-2.77c-7.51-13.02-13.61-26.95-19.59-40.72c-0.05,0.32-0.1,0.63-0.15,0.95
		c-2.33,14.3-4.7,28.79-8.74,42.73c-0.4,1.37-0.77,2.47-1.56,3.07c-0.02,0.02-0.03,0.03-0.06,0.04c-0.09,0.06-0.18,0.12-0.28,0.18
		c-0.03,0.02-0.05,0.03-0.08,0.04c-6.63,4.05-18.4,6.34-25.91,7.63c-10.27-31.04-20.72-62.47-31-93.5
		c6.6-4.24,13.69-7.73,21.07-10.4c3.55-1.27,7.51-2.89,11.26-3.36c3.04-0.38,3.71,1.37,4.46,4.03c2.82,9.94,4.91,20.13,6.72,30.34
		c2.43-7.17,4.85-14.33,7.26-21.47c0.01-0.03,0.02-0.05,0.03-0.08c0.9-2.68,1.81-5.35,2.7-8.02l-0.09-0.49l14.66-4.52v0.34
		c0.02-0.01,0.03-0.02,0.05-0.03c5.8,9.15,11.62,18.33,17.47,27.54c-0.71-10.76-1.12-21.56-0.73-32.28c0.1-2.89,0.34-4.83,3.52-5.2
		c3.92-0.46,8.34,0.19,12.26,0.6C129.15,136.47,137.2,138.25,144.96,140.91z"/>
	<g>
		<path class="st0" d="M182.38,31.8c-4.3,7.39-9.79,14.17-15.2,20.85c-1.91,2.35-3.83,4.68-5.76,7.01
			c-2.58,3.12-5.17,6.25-7.75,9.37c-0.13,2.01-0.26,4.02-0.4,6.03c-0.2,3-0.4,5.99-0.63,8.99c-0.63,8.51-1.29,17.16-2.92,25.55
			c-0.28,1.42-0.55,2.37-2.14,2.3c-1.97-0.08-9.23-2.13-11.13-2.64c-3.95-1.06-7.79-2.56-11.4-4.48c2.63-10.98,5.29-22.05,7.94-33.1
			c-2.85-4.13-5.7-8.26-8.55-12.39c-1.7-2.47-3.41-4.94-5.1-7.43c-4.8-7.06-9.66-14.23-13.6-21.82c-0.67-1.28-1.04-2.19,0.24-3.14
			c1.59-1.16,3.67-1.97,5.47-2.75c3.76-1.63,7.7-2.84,11.72-3.58c5.92,10.56,10.18,19.61,15.94,30.49
			c6.99-11.53,10.6-20.99,15.57-33.87c5.09,1.51,10.12,3.51,14.95,5.92c2.32,1.16,10.11,3.77,12.2,5.3
			C183.49,29.64,183.1,30.55,182.38,31.8z"/>
	</g>
</g>
</svg>
